<svg width="5" height="15" viewBox="0 0 5 15" fill="none" xmlns="http://www.w3.org/2000/svg">
<path d="M2.40724 8.40231C2.80668 8.40231 3.13049 8.0785 3.13049 7.67906C3.13049 7.27962 2.80668 6.95581 2.40724 6.95581C2.0078 6.95581 1.68399 7.27962 1.68399 7.67906C1.68399 8.0785 2.0078 8.40231 2.40724 8.40231Z" stroke="#4F4E4E" stroke-width="1.82716" stroke-linecap="round" stroke-linejoin="round"/>
<path d="M2.40724 3.33957C2.80668 3.33957 3.13049 3.01576 3.13049 2.61632C3.13049 2.21688 2.80668 1.89307 2.40724 1.89307C2.0078 1.89307 1.68399 2.21688 1.68399 2.61632C1.68399 3.01576 2.0078 3.33957 2.40724 3.33957Z" stroke="#4F4E4E" stroke-width="1.82716" stroke-linecap="round" stroke-linejoin="round"/>
<path d="M2.40724 13.4651C2.80668 13.4651 3.13049 13.1412 3.13049 12.7418C3.13049 12.3424 2.80668 12.0186 2.40724 12.0186C2.0078 12.0186 1.68399 12.3424 1.68399 12.7418C1.68399 13.1412 2.0078 13.4651 2.40724 13.4651Z" stroke="#4F4E4E" stroke-width="1.82716" stroke-linecap="round" stroke-linejoin="round"/>
</svg>
