<svg width="31" height="31" viewBox="0 0 31 31" fill="none" xmlns="http://www.w3.org/2000/svg">
<rect width="30.1481" height="30.1481" rx="4.5679" fill="#F9365F"/>
<path d="M14.1968 11.5217V17.0077C14.1968 17.5914 14.0672 18.1192 13.8082 18.5908C13.5531 19.0586 13.1645 19.4298 12.6426 19.7042C12.1246 19.9787 11.4712 20.116 10.6825 20.116C9.56135 20.116 8.70695 19.8299 8.11931 19.2577C7.53167 18.6855 7.23785 17.9278 7.23785 16.9845V11.5217H9.02977V16.7119C9.02977 17.4117 9.17281 17.9027 9.4589 18.1849C9.74499 18.4671 10.1683 18.6082 10.7289 18.6082C11.1232 18.6082 11.4422 18.5406 11.6858 18.4052C11.9332 18.2699 12.1149 18.0612 12.2309 17.7789C12.3469 17.4967 12.4048 17.1372 12.4048 16.7003V11.5217H14.1968ZM22.7711 20H20.7182L18.7465 16.7931L16.7748 20H14.8495L17.6621 15.6275L15.0293 11.5217H17.0126L18.8393 14.572L20.6312 11.5217H22.5681L19.9063 15.7261L22.7711 20Z" fill="white"/>
</svg>
