<svg width="40" height="40" viewBox="0 0 40 40" fill="none" xmlns="http://www.w3.org/2000/svg">
<circle cx="20" cy="20" r="20" fill="#FFD0BE"/>
<path d="M20.2422 25L19.6797 22.8594H15.9688L15.3906 25H12L15.7266 13.5312H19.8438L23.6172 25H20.2422ZM19.0391 20.3281L18.5469 18.4531C18.4948 18.25 18.4193 17.9609 18.3203 17.5859C18.2214 17.2057 18.1224 16.8151 18.0234 16.4141C17.9297 16.0078 17.8568 15.6745 17.8047 15.4141C17.7578 15.6745 17.6901 15.9974 17.6016 16.3828C17.5182 16.763 17.4297 17.1406 17.3359 17.5156C17.2474 17.8906 17.1693 18.2031 17.1016 18.4531L16.6094 20.3281H19.0391ZM23.4809 28.5859C23.132 28.5859 22.8273 28.5677 22.5669 28.5312C22.3013 28.5 22.0721 28.4635 21.8794 28.4219V26.0234C22.046 26.0547 22.2231 26.0885 22.4106 26.125C22.5981 26.1667 22.8013 26.1875 23.02 26.1875C23.3898 26.1875 23.6763 26.112 23.8794 25.9609C24.0877 25.8099 24.2335 25.5833 24.3169 25.2812C24.4002 24.9792 24.4419 24.6016 24.4419 24.1484V13.5781H27.5434V23.8828C27.5434 25.0286 27.3716 25.9453 27.0278 26.6328C26.6841 27.3203 26.2075 27.8177 25.5981 28.125C24.9888 28.4323 24.283 28.5859 23.4809 28.5859Z" fill="#A45030"/>
</svg>
