<svg width="19" height="19" viewBox="0 0 19 19" fill="none" xmlns="http://www.w3.org/2000/svg">
<path d="M18.2108 9.06892C18.2143 10.4042 17.9023 11.7215 17.3002 12.9134C16.5864 14.3417 15.489 15.543 14.131 16.3829C12.773 17.2227 11.208 17.6678 9.61124 17.6685C8.27592 17.6719 6.95865 17.36 5.76674 16.7579L0 18.6802L1.92225 12.9134C1.32021 11.7215 1.00823 10.4042 1.01171 9.06892C1.01233 7.4722 1.45748 5.90718 2.29731 4.54916C3.13714 3.19114 4.33847 2.09376 5.76674 1.37993C6.95865 0.777891 8.27592 0.465908 9.61124 0.469389H10.1171C12.2259 0.585727 14.2176 1.4758 15.711 2.96918C17.2044 4.46256 18.0944 6.45431 18.2108 8.56307V9.06892Z" fill="white"/>
</svg>
