<svg width="31" height="31" viewBox="0 0 31 31" fill="none" xmlns="http://www.w3.org/2000/svg">
<rect width="30.1481" height="30.1481" rx="4.5679" fill="#613E97"/>
<path d="M10.859 20H9.09029V11.5217H13.9499V12.9947H10.859V15.181H13.7354V16.6481H10.859V20ZM22.2865 15.6797C22.2865 16.6346 22.1028 17.4329 21.7356 18.0747C21.3721 18.7126 20.8444 19.1939 20.1524 19.5187C19.4604 19.8396 18.6272 20 17.653 20H15.2522V11.5217H17.914C18.8031 11.5217 19.5744 11.6802 20.2278 11.9973C20.8812 12.3104 21.3876 12.7763 21.7472 13.3948C22.1067 14.0095 22.2865 14.7712 22.2865 15.6797ZM20.4192 15.7261C20.4192 15.0998 20.3264 14.5856 20.1408 14.1835C19.9591 13.7776 19.6885 13.478 19.3289 13.2846C18.9733 13.0913 18.5325 12.9947 18.0067 12.9947H17.0499V18.5154H17.8212C18.6988 18.5154 19.3502 18.2815 19.7755 17.8137C20.2046 17.3459 20.4192 16.6501 20.4192 15.7261Z" fill="white"/>
</svg>
