<svg width="31" height="31" viewBox="0 0 31 31" fill="none" xmlns="http://www.w3.org/2000/svg">
<rect width="30.1481" height="30.1481" rx="4.5679" fill="#FF8494"/>
<path d="M8.4917 20V11.5217H10.2894V18.5154H13.7283V20H8.4917ZM21.8851 15.6797C21.8851 16.6346 21.7014 17.4329 21.3341 18.0747C20.9707 18.7126 20.443 19.1939 19.751 19.5187C19.059 19.8396 18.2258 20 17.2516 20H14.8508V11.5217H17.5125C18.4017 11.5217 19.173 11.6802 19.8264 11.9973C20.4797 12.3104 20.9862 12.7763 21.3457 13.3948C21.7053 14.0095 21.8851 14.7712 21.8851 15.6797ZM20.0177 15.7261C20.0177 15.0998 19.925 14.5856 19.7394 14.1835C19.5577 13.7776 19.2871 13.478 18.9275 13.2846C18.5718 13.0913 18.1311 12.9947 17.6053 12.9947H16.6485V18.5154H17.4198C18.2974 18.5154 18.9488 18.2815 19.374 17.8137C19.8032 17.3459 20.0177 16.6501 20.0177 15.7261Z" fill="white"/>
</svg>
