<svg width="41" height="41" viewBox="0 0 41 41" fill="none" xmlns="http://www.w3.org/2000/svg">
<path d="M25.916 29.0944L27.0904 32.2549L27.9774 31.7731L25.9589 29.067L25.916 29.0944Z" fill="#2D6AB3"/>
<path d="M38.7782 25.9364L40.0282 25.2599V19.9125L35.3107 22.9831L38.7782 25.9364Z" fill="#A2C089"/>
<path d="M27.9774 31.7731L38.7783 25.9364L35.3107 22.9831L25.9589 29.0669L27.9774 31.7731Z" fill="#657CBC"/>
<path d="M31.4248 19.6753L29.7591 18.2573C28.4873 21.2947 27.1214 24.6782 25.6615 28.4079L25.853 28.9222L31.4248 19.6753Z" fill="#EC2353"/>
<path d="M22.5417 12.1135L19.5907 9.59961L18.7994 9.93164L19.6562 12.2508L19.7041 12.3857L21.8159 18.0651L21.9243 18.3622L23.2347 21.8872L24.3032 24.7656L26.8887 18.3572C27.1407 17.7131 27.3927 17.0765 27.6246 16.4449L24.2805 13.5939L22.5417 12.1135Z" fill="#EC2353"/>
<path d="M25.853 28.9246L25.916 29.0944L25.9589 29.0669L25.853 28.9246Z" fill="#EC2353"/>
<path d="M40.0281 27.0024V25.2599L38.7782 25.9364L40.0281 27.0024Z" fill="#91C9B8"/>
<path d="M22.5417 12.1135L29.3281 11.4644C29.5499 10.7338 29.7565 10.0132 29.948 9.30252C30.3665 7.82397 30.703 6.32386 30.956 4.8089L19.5907 9.59959L22.5417 12.1135Z" fill="#F37F94"/>
<path d="M35.1368 6.3642C34.4278 7.77053 33.6718 9.35745 32.8688 11.1249L36.8101 10.7455L35.1368 6.3642Z" fill="#F37F94"/>
<path d="M9.4627 2.31497C9.68951 2.84422 9.91379 3.39594 10.133 3.96513L14.7951 5.51792L8.98642 0.572449H8.06409C8.24889 0.603874 8.42544 0.671792 8.58321 0.772165C8.86714 0.981867 9.1603 1.49614 9.4627 2.31497Z" fill="#EC2353"/>
<path d="M10.1331 3.96509C10.4455 4.76895 10.7505 5.60775 11.0529 6.489C11.4342 7.60575 11.866 8.93636 12.3482 10.4808L14.7901 5.53036L10.1331 3.96509Z" fill="#D64873"/>
<path d="M13.1521 13.0123L15.8334 21.4778L18.1241 12.5355L13.1521 13.0123Z" fill="#D01E4E"/>
<path d="M10.5236 21.243C9.85158 19.136 9.17957 17.1264 8.50756 15.2141L8.21524 14.3953L5.82373 15.3938L10.5236 21.243Z" fill="#D01E4E"/>
<path d="M18.2526 8.4612L19.5882 9.59709L30.946 4.81887C31.028 4.30065 31.0777 3.77789 31.0947 3.2536C31.0947 3.19868 31.0947 3.14375 31.0947 3.09382C31.091 2.69227 31.0556 2.29161 30.9888 1.89553C30.9611 1.71578 30.9258 1.52605 30.883 1.32883L29.9707 0.579895H17.2345L16.1433 2.79175L18.2526 8.4612Z" fill="#F37466"/>
<path d="M18.7994 9.93161L19.5907 9.59959L18.2551 8.4637L14.7951 5.51788L12.3481 10.4808L12.8774 12.1759L12.9504 12.4056L18.7843 9.94659L18.7994 9.93161Z" fill="#F06B7D"/>
<path d="M18.2525 8.46124L16.1433 2.7843L14.795 5.51792L18.2525 8.46124Z" fill="#F0537F"/>
<path d="M8.62099 26.8526L11.4762 38.4961L13.4393 30.832C12.8059 28.6401 12.1751 26.5264 11.5467 24.491C11.2107 23.3825 10.8697 22.3007 10.5236 21.2456L5.81116 15.4039L8.62099 26.8526Z" fill="#503F7A"/>
<path d="M5.81114 15.4039L3.07943 23.2577L1.14404 28.8248L11.4762 38.4961L8.61845 26.8526L5.81114 15.4039Z" fill="#6E57A5"/>
<path d="M8.2027 14.3953C7.94566 13.673 7.69365 12.9748 7.44669 12.3007L0.330124 10.4584L0 10.3735V11.7116L5.81119 15.4013L8.2027 14.3953Z" fill="#7B1F2D"/>
<path d="M14.9563 36.2293C14.4523 34.3819 13.9483 32.5828 13.4443 30.832L11.4812 38.4961L14.9563 36.2293Z" fill="#89489B"/>
<path d="M21.9293 18.3622L19.1296 21.3929L18.928 21.6126L16.6549 24.0716L16.6751 24.1365L19.558 33.2336L21.3674 32.0552L24.3082 24.7656L23.2398 21.8872L21.9293 18.3622Z" fill="#89489B"/>
<path d="M25.8529 28.9247L25.6614 28.4104C25.5984 28.5727 25.5354 28.7324 25.4699 28.8947C25.3842 29.1194 25.2985 29.3391 25.2179 29.5563L25.921 29.0969L25.8529 28.9247Z" fill="#89489B"/>
<path d="M35.1368 6.36422L36.8051 10.7455L38.9597 10.5408L40.0282 10.4384V8.9081L35.6812 5.30322C35.5022 5.64524 35.3208 5.98725 35.1368 6.36422Z" fill="#F0B656"/>
<path d="M18.7893 9.93664V9.93414L12.9554 12.3931L13.152 13.0123L18.124 12.5354L18.7893 9.93664Z" fill="#EC2353"/>
<path d="M19.1296 21.3928L21.9293 18.3621L21.8184 18.0651L19.7092 12.3856L19.1951 12.4331L18.1241 12.5354L15.8334 21.4777L16.6549 24.0715L18.928 21.6125L19.1296 21.3928Z" fill="#D64873"/>
<path d="M18.7893 9.93663L18.124 12.5354L19.195 12.4331L19.7091 12.3857L19.6612 12.2508L18.7994 9.93164L18.7893 9.93414V9.93663Z" fill="#F0537F"/>
<path d="M0 40.0938H1.92026L0 38.2239V40.0938Z" fill="#46315B"/>
<path d="M36.8051 10.7455L36.8026 10.748L36.8051 10.7455L36.1146 11.8963L31.4248 19.6778L35.3107 22.9831L40.0282 19.9125V10.4384L38.9597 10.5408L36.8051 10.7455Z" fill="#5EA687"/>
<path d="M25.853 28.9247L25.9589 29.067L35.3107 22.9831L31.4248 19.6778L25.853 28.9222V28.9247Z" fill="#A3509E"/>
<path d="M31.4247 19.6778L36.1145 11.8963L36.805 10.7455L32.8637 11.1224C32.5361 11.8464 32.1959 12.6003 31.8557 13.3842C31.1837 14.8954 30.4864 16.5189 29.764 18.2548L31.4298 19.6728L31.4247 19.6778Z" fill="#EF403A"/>
<path d="M24.2804 13.594L27.6296 16.4449C27.7682 16.0779 27.9017 15.7134 28.0328 15.354C28.5082 14.0225 28.94 12.726 29.3281 11.4645L22.5416 12.1136L24.2804 13.594Z" fill="#EF403A"/>
<path d="M40.0282 0.994349V0.572449H38.4607C38.1533 1.00933 37.8307 1.50363 37.493 2.07032L40.0282 0.994349Z" fill="#F37466"/>
<path d="M30.7041 0.572449H29.9733L30.8855 1.32138C30.8351 1.08422 30.7746 0.827087 30.7041 0.572449Z" fill="#F06B7D"/>
<path d="M16.1433 2.78431L15.3218 0.572449H15.0295H11.3376H8.98645L14.7951 5.51792L16.1433 2.78431Z" fill="#EF3F67"/>
<path d="M7.43913 12.3008C7.28961 11.8964 7.14177 11.5011 6.99561 11.115C6.62432 10.1414 6.26312 9.21933 5.91199 8.3489C4.5327 4.94374 3.28948 2.35159 2.18235 0.572449H0V10.3735L0.330124 10.4584L7.43913 12.3008Z" fill="#CB2030"/>
<path d="M17.2345 0.572449H15.3218L16.1433 2.78431L17.2345 0.572449Z" fill="#F0537F"/>
<path d="M12.5851 40.0938H15.6797L13.8653 39.4023L12.5851 40.0938Z" fill="#1F498A"/>
<path d="M35.6812 5.3032L40.0282 8.90808V0.994324L37.4931 2.06281C37.2965 2.38485 37.0924 2.72936 36.8857 3.09135C36.5027 3.75873 36.1012 4.49602 35.6812 5.3032Z" fill="#F6927C"/>
<path d="M9.01917 40.0938H11.6299L11.4762 38.496L9.01917 40.0938Z" fill="#613E97"/>
<path d="M13.8602 39.4023L15.5688 38.4811C15.3647 37.7321 15.158 36.9832 14.9539 36.2343L11.4738 38.501L13.8602 39.4023Z" fill="#613E97"/>
<path d="M20.1452 35.0884L21.3674 32.0552L19.558 33.2336L20.1452 35.0884Z" fill="#613E97"/>
<path d="M25.9159 29.0944L25.2129 29.5538C24.5408 31.2514 23.9335 32.8183 23.3909 34.2546L27.0903 32.2574L25.9159 29.0944Z" fill="#613E97"/>
<path d="M11.4762 38.496L11.6299 40.0938H12.585L13.8652 39.4022L11.4762 38.496Z" fill="#46315B"/>
<path d="M0 34.1273V38.2239L1.92026 40.0938H1.92278H9.01919L11.4762 38.4961L0 34.1273Z" fill="#503F7A"/>
<path d="M0 11.7116V17.8504L5.81119 15.4039L0 11.7116Z" fill="#6D183C"/>
<path d="M3.07948 23.2577L5.81119 15.4039L0 17.8504V19.4431V27.7563L1.14409 28.8248L3.07948 23.2577Z" fill="#5C3A71"/>
<path d="M1.14409 28.8248L0 27.7563V34.1272L11.4762 38.496L1.14409 28.8248Z" fill="#613E97"/>
<path d="M38.7807 36.3791L40.0281 36.2767V27.0024L38.7782 25.9364L38.7807 36.3791Z" fill="#72C4B7"/>
<path d="M38.7783 36.3791H38.7808L38.7783 25.9364L27.9774 31.7731L38.7783 36.3791Z" fill="#6EA2B4"/>
<path d="M31.8381 36.9508L38.7783 36.3791L27.9774 31.7731L31.8381 36.9508Z" fill="#019FC9"/>
<path d="M13.8602 39.4023L15.6772 40.0938H16.0023C15.8578 39.5512 15.7141 39.0137 15.5713 38.4811L13.8602 39.4023Z" fill="#6E57A5"/>
<path d="M23.391 34.2546C22.4938 36.5863 21.7454 38.5485 21.1229 40.0938H29.996L27.0853 32.2549L23.391 34.2546Z" fill="#6E57A5"/>
<path d="M27.9774 31.7731L27.0903 32.2549L30.001 40.0938H34.1817L31.8381 36.9508L27.9774 31.7731Z" fill="#264080"/>
<path d="M38.7783 36.3791L31.8381 36.9508L34.1818 40.0938H40.0282V36.2767L38.7808 36.3791H38.7783Z" fill="#0E8AB9"/>
<path d="M38.4607 0.572438L38.5414 0.457601H30.6739L30.7041 0.572438C30.7747 0.822083 30.8351 1.07173 30.8855 1.32137C30.9284 1.51859 30.9637 1.70832 30.9914 1.88807C31.0582 2.28415 31.0936 2.68481 31.0972 3.08637C31.0972 3.1363 31.0972 3.19122 31.0972 3.24614C31.0803 3.77043 31.0306 4.29319 30.9485 4.81142C30.6955 6.32638 30.359 7.82649 29.9405 9.30503C29.749 10.014 29.5424 10.7347 29.3206 11.467C28.9342 12.7302 28.5024 14.0267 28.0253 15.3564C27.8943 15.7159 27.7733 16.0804 27.6221 16.4474C27.3877 17.079 27.1408 17.7156 26.8862 18.3597L24.3083 24.7656L21.3674 32.0552L20.1452 35.0884L19.558 33.2335L16.6751 24.1365L16.6549 24.0716L15.8334 21.4777L13.1521 13.0123L12.9555 12.3931L12.8824 12.1635L12.3482 10.4809C11.866 8.93473 11.4343 7.60328 11.0529 6.48654C10.7505 5.60529 10.4456 4.76648 10.1331 3.96262C9.91383 3.39343 9.68955 2.84171 9.46275 2.31247C9.16034 1.49363 8.86802 0.97936 8.58578 0.769658C8.428 0.669285 8.25146 0.601367 8.06665 0.569941C7.58885 0.482922 7.10332 0.444444 6.61763 0.455105H2.11182C2.1345 0.492551 2.15718 0.532495 2.18238 0.569941C3.28951 2.35075 4.53273 4.94373 5.91202 8.34889C6.26483 9.21766 6.62603 10.1397 6.99564 11.115C7.1418 11.5027 7.28964 11.898 7.43916 12.3008C7.69117 12.9748 7.94317 13.673 8.19517 14.3953L8.49506 15.2241C9.16706 17.1347 9.83907 19.1444 10.5111 21.2531C10.8471 22.3116 11.1881 23.3934 11.5342 24.4985C12.1642 26.5322 12.7951 28.6459 13.4268 30.8394C13.9308 32.5886 14.4348 34.3877 14.9388 36.2368C15.1429 36.9857 15.3495 37.7346 15.5537 38.4836C15.6965 39.0178 15.8401 39.5554 15.9846 40.0963C15.9846 40.1263 16.0022 40.1587 16.0098 40.1887H21.0902L21.128 40.0963C21.7454 38.551 22.4938 36.5888 23.396 34.2571C23.9454 32.8241 24.5527 31.2572 25.218 29.5563C25.3037 29.3391 25.3893 29.1194 25.47 28.8947C25.5355 28.7324 25.5985 28.5727 25.6615 28.4104C27.1214 24.6824 28.4873 21.2988 29.7591 18.2598C30.4882 16.5239 31.1854 14.9004 31.8507 13.3892C32.196 12.6053 32.5362 11.8514 32.8587 11.1274C33.6651 9.35995 34.4211 7.77304 35.1267 6.36671C35.3107 5.99973 35.4922 5.64773 35.6711 5.30571C36.0894 4.50019 36.4909 3.76207 36.8756 3.09136C37.0823 2.72937 37.2864 2.38486 37.483 2.06282C37.8307 1.49363 38.1533 1.00932 38.4607 0.572438Z" fill="white"/>
</svg>
