<svg width="31" height="31" viewBox="0 0 31 31" fill="none" xmlns="http://www.w3.org/2000/svg">
<rect width="30.1481" height="30.1481" rx="4.5679" fill="#259E97"/>
<path d="M14.7625 15.7493C14.7625 16.4026 14.6813 16.998 14.519 17.5354C14.3566 18.0689 14.1092 18.529 13.7767 18.9156C13.4481 19.3022 13.0305 19.5999 12.5241 19.8086C12.0176 20.0135 11.4184 20.116 10.7264 20.116C10.0343 20.116 9.43509 20.0135 8.92863 19.8086C8.42218 19.5999 8.00271 19.3022 7.67023 18.9156C7.34162 18.529 7.09612 18.067 6.93375 17.5296C6.77137 16.9922 6.69018 16.3949 6.69018 15.7377C6.69018 14.8601 6.83323 14.0965 7.11932 13.447C7.40927 12.7937 7.85387 12.2872 8.45311 11.9277C9.05235 11.5681 9.81396 11.3883 10.738 11.3883C11.6581 11.3883 12.4139 11.5681 13.0054 11.9277C13.6008 12.2872 14.0415 12.7937 14.3276 13.447C14.6175 14.1004 14.7625 14.8678 14.7625 15.7493ZM8.57489 15.7493C8.57489 16.3408 8.64834 16.8511 8.79525 17.2802C8.94603 17.7055 9.17993 18.0341 9.49694 18.2661C9.81396 18.4942 10.2238 18.6082 10.7264 18.6082C11.2367 18.6082 11.6503 18.4942 11.9674 18.2661C12.2844 18.0341 12.5144 17.7055 12.6575 17.2802C12.8044 16.8511 12.8778 16.3408 12.8778 15.7493C12.8778 14.8601 12.7116 14.1603 12.3791 13.65C12.0466 13.1397 11.4996 12.8845 10.738 12.8845C10.2315 12.8845 9.81783 13.0005 9.49694 13.2325C9.17993 13.4606 8.94603 13.7892 8.79525 14.2183C8.64834 14.6436 8.57489 15.1539 8.57489 15.7493ZM23.1977 15.6797C23.1977 16.6346 23.014 17.4329 22.6467 18.0747C22.2833 18.7126 21.7556 19.1939 21.0636 19.5187C20.3716 19.8396 19.5384 20 18.5642 20H16.1634V11.5217H18.8251C19.7143 11.5217 20.4856 11.6802 21.139 11.9973C21.7923 12.3104 22.2988 12.7763 22.6583 13.3948C23.0179 14.0095 23.1977 14.7712 23.1977 15.6797ZM21.3303 15.7261C21.3303 15.0998 21.2376 14.5856 21.052 14.1835C20.8703 13.7776 20.5997 13.478 20.2401 13.2846C19.8844 13.0913 19.4437 12.9947 18.9179 12.9947H17.9611V18.5154H18.7323C19.6099 18.5154 20.2614 18.2815 20.6866 17.8137C21.1158 17.3459 21.3303 16.6501 21.3303 15.7261Z" fill="white"/>
</svg>
