<svg width="31" height="31" viewBox="0 0 31 31" fill="none" xmlns="http://www.w3.org/2000/svg">
<rect width="30.1481" height="30.1481" rx="4.5679" fill="#2E3453"/>
<path d="M10.8289 11.5217C11.923 11.5217 12.7213 11.7576 13.2239 12.2292C13.7265 12.697 13.9778 13.3426 13.9778 14.1661C13.9778 14.5373 13.9217 14.8929 13.8096 15.2331C13.6975 15.5695 13.5139 15.8691 13.2587 16.132C13.0074 16.3949 12.6711 16.6037 12.2497 16.7583C11.8283 16.9091 11.3083 16.9845 10.6897 16.9845H9.91843V20H8.12071V11.5217H10.8289ZM10.7361 12.9947H9.91843V15.5115H10.5099C10.8463 15.5115 11.1382 15.467 11.3856 15.3781C11.633 15.2892 11.8244 15.15 11.9597 14.9606C12.095 14.7712 12.1627 14.5276 12.1627 14.2299C12.1627 13.8124 12.0467 13.5031 11.8147 13.302C11.5828 13.0971 11.2232 12.9947 10.7361 12.9947ZM22.2564 15.6797C22.2564 16.6346 22.0727 17.4329 21.7054 18.0747C21.342 18.7126 20.8143 19.1939 20.1223 19.5187C19.4303 19.8396 18.5971 20 17.6229 20H15.2221V11.5217H17.8838C18.773 11.5217 19.5443 11.6802 20.1977 11.9973C20.851 12.3104 21.3575 12.7763 21.717 13.3948C22.0766 14.0095 22.2564 14.7712 22.2564 15.6797ZM20.389 15.7261C20.389 15.0998 20.2963 14.5856 20.1107 14.1835C19.929 13.7776 19.6584 13.478 19.2988 13.2846C18.9431 13.0913 18.5024 12.9947 17.9766 12.9947H17.0198V18.5154H17.791C18.6686 18.5154 19.3201 18.2815 19.7453 17.8137C20.1745 17.3459 20.389 16.6501 20.389 15.7261Z" fill="white"/>
</svg>
